<?xml version="1.0" encoding="utf-8"?>
<!-- Generator: Adobe Illustrator 23.0.1, SVG Export Plug-In . SVG Version: 6.00 Build 0)  -->
<svg version="1.1" id="Laag_1" xmlns="http://www.w3.org/2000/svg" xmlns:xlink="http://www.w3.org/1999/xlink" x="0px" y="0px"
	 viewBox="0 0 488 198" style="enable-background:new 0 0 488 198;" xml:space="preserve">
<style type="text/css">
	.st0{fill:#3C3C3B;}
	.st1{fill:#BD1622;}
</style>
<polygon id="XMLID_23_" class="st0" points="100.1,96.6 100.1,124.3 112.3,124.3 112.3,118.3 "/>
<polygon id="XMLID_22_" class="st0" points="153.8,96.6 153.8,124.3 141.6,124.3 141.6,118.3 "/>
<polygon id="XMLID_21_" class="st0" points="100.1,78.3 124.3,119.6 129.8,119.6 153.8,78.3 143.6,78.3 126.9,105.1 111.3,78.3 "/>
<rect id="XMLID_20_" x="177.8" y="78.3" class="st1" width="35.8" height="9.8"/>
<rect id="XMLID_19_" x="177.8" y="95.6" class="st1" width="35.8" height="9.8"/>
<rect id="XMLID_18_" x="177.8" y="114.6" class="st1" width="35.8" height="9.8"/>
<polygon id="XMLID_17_" class="st0" points="230.6,124.3 250.8,78.3 263.3,78.3 283.6,124.3 270.3,124.3 257.1,91.1 243.3,124.3 "/>
<polygon id="XMLID_16_" class="st0" points="301.6,78.3 301.6,124.3 336.8,124.3 336.8,114.6 314.6,114.6 314.6,78.3 "/>
<rect id="XMLID_15_" x="355.8" y="78.3" class="st0" width="35.8" height="9.8"/>
<rect id="XMLID_14_" x="355.8" y="95.6" class="st0" width="35.8" height="9.8"/>
<rect id="XMLID_13_" x="355.8" y="114.6" class="st0" width="35.8" height="9.8"/>
</svg>
